<svg xmlns="http://www.w3.org/2000/svg" viewBox="0 0 1024 1024">
  <!-- Monitor/Screen -->
  <rect x="320" y="35" width="480" height="320" rx="30" fill="none" stroke="#4a9b8e" stroke-width="50"/>
  <rect x="370" y="85" width="380" height="220" fill="white"/>
  
  <!-- Screen content - left sidebar -->
  <rect x="385" y="100" width="50" height="190" fill="#c8e6c9" rx="8"/>
  
  <!-- Screen content - main area -->
  <rect x="460" y="100" width="280" height="50" fill="#4a9b8e" rx="12"/>
  <rect x="460" y="170" width="280" height="50" fill="#4a9b8e" rx="12"/>
  
  <!-- Monitor stand -->
  <rect x="480" y="355" width="60" height="80" fill="#4a9b8e" rx="15"/>
  
  <!-- Left person/user -->
  <circle cx="200" cy="520" r="60" fill="#c8e6c9" stroke="#4a9b8e" stroke-width="40"/>
  <rect x="100" y="600" width="200" height="180" fill="#c8e6c9" stroke="#4a9b8e" stroke-width="40" rx="30"/>
  
  <!-- Left person arms -->
  <rect x="30" y="650" width="140" height="60" fill="#c8e6c9" stroke="#4a9b8e" stroke-width="40" rx="30"/>
  <rect x="270" y="650" width="140" height="60" fill="#c8e6c9" stroke="#4a9b8e" stroke-width="40" rx="30"/>
  
  <!-- Left person wheels -->
  <circle cx="130" cy="820" r="45" fill="none" stroke="#4a9b8e" stroke-width="35"/>
  <circle cx="270" cy="820" r="45" fill="none" stroke="#4a9b8e" stroke-width="35"/>
  <circle cx="130" cy="820" r="20" fill="#a5d6a7"/>
  <circle cx="270" cy="820" r="20" fill="#a5d6a7"/>
  
  <!-- Center table -->
  <rect x="380" y="680" width="260" height="60" fill="#c8e6c9" stroke="#4a9b8e" stroke-width="40" rx="20"/>
  
  <!-- Table support -->
  <rect x="500" y="740" width="40" height="100" fill="#4a9b8e" rx="15"/>
  
  <!-- Right person/user -->
  <circle cx="824" cy="520" r="60" fill="#c8e6c9" stroke="#4a9b8e" stroke-width="40"/>
  <rect x="724" y="600" width="200" height="180" fill="#c8e6c9" stroke="#4a9b8e" stroke-width="40" rx="30"/>
  
  <!-- Right person wheels -->
  <circle cx="754" cy="820" r="45" fill="none" stroke="#4a9b8e" stroke-width="35"/>
  <circle cx="894" cy="820" r="45" fill="none" stroke="#4a9b8e" stroke-width="35"/>
  <circle cx="754" cy="820" r="20" fill="#a5d6a7"/>
  <circle cx="894" cy="820" r="20" fill="#a5d6a7"/>
  
  <!-- Connection line from monitor to table -->
  <line x1="510" y1="435" x2="510" y2="680" stroke="#4a9b8e" stroke-width="40" stroke-linecap="round"/>
</svg>
